<svg xmlns="http://www.w3.org/2000/svg" viewBox="0 0 420.0 1120.0" width="420.0" height="1120.0">
  <title>Terra Nexus character - wind shell - back</title>
  <rect width="420.0" height="1120.0" fill="#F4F2EC"/>
  <g transform="translate(210.0,40) scale(1.02)"><g class="fig" data-view="BACK"><g class="arm">
      <path d="M-87.5 211.0C-89.2 228.7 -94.4 277.7 -97.9 317.0C-101.4 356.3 -105.7 416.5 -108.3 447.0C-110.9 477.5 -107.3 491.2 -113.5 500.0C-119.7 508.8 -140.0 508.8 -145.5 500.0C-151.0 491.2 -146.2 477.5 -146.3 447.0C-146.4 416.5 -145.7 356.3 -145.9 317.0C-146.1 277.7 -147.2 228.7 -147.5 211.0Z" fill="#5A90BE" stroke="#1B3144" stroke-width="2.6"/>
      <path d="M-145.9 460.7L-109.9 460.7L-113.5 500.0L-145.5 500.0Z" fill="#5A90BE" stroke="#1B3144" stroke-width="2.6"/>
      <path d="M-145.9 460.7L-109.9 460.7L-113.5 500.0L-145.5 500.0Z" fill="#FFFFFF" opacity="0.9"
            transform="translate(0,0)" clip-path="none" style="display:none"/>
      <g class="cuff-mark" fill="#FFFFFF" opacity="0.95">
        <rect x="-142.5" y="475.4" width="26" height="7" rx="3"/>
      </g>
      <ellipse cx="-129.5" cy="526.0" rx="13" ry="26" fill="#C6A088"/>
    </g><path d="M4.0 506.0C3.8 513.0 4.4 511.3 2.9 548.0C1.3 584.7 -3.1 660.7 -5.4 726.0C-7.7 791.3 -4.7 904.3 -11.0 940.0C-17.3 975.7 -35.3 975.7 -43.0 940.0C-50.7 904.3 -52.4 791.3 -57.4 726.0C-62.5 660.7 -70.0 584.7 -73.1 548.0C-76.2 511.3 -75.5 513.0 -76.0 506.0Z" fill="#2C313A"/><path d="M76.0 506.0C75.5 513.0 76.2 511.3 73.1 548.0C70.0 584.7 62.5 660.7 57.4 726.0C52.4 791.3 50.7 904.3 43.0 940.0C35.3 975.7 17.3 975.7 11.0 940.0C4.7 904.3 7.7 791.3 5.4 726.0C3.1 660.7 -1.3 584.7 -2.9 548.0C-4.4 511.3 -3.8 513.0 -4.0 506.0Z" fill="#3A404B"/><path d="M-47.0 934.0L-7.0 934.0L-4.0 994.0Q-3.0 1000.0 -9.0 1000.0L-65.0 1000.0Q-71.0 1000.0 -70.0 994.0Z" fill="#463A2C"/><path d="M7.0 934.0L47.0 934.0L50.0 994.0Q51.0 1000.0 45.0 1000.0L-11.0 1000.0Q-17.0 1000.0 -16.0 994.0Z" fill="#463A2C" stroke="#16222F" stroke-width="2"/><ellipse cx="-0.0" cy="171.0" rx="60.0" ry="40" fill="#3C6E99" stroke="#1B3144" stroke-width="2.6"/><path d="M81.4 169.0C83.9 172.0 89.9 181.0 96.3 187.1C102.7 193.1 115.2 199.1 119.8 205.1C124.5 211.1 124.4 217.1 124.1 223.2C123.9 229.2 120.3 235.2 118.0 241.2C115.7 247.2 112.3 253.3 110.3 259.3C108.3 265.3 106.8 271.3 106.0 277.3C105.2 283.3 105.7 289.4 105.5 295.4C105.2 301.4 104.6 307.4 104.3 313.4C104.0 319.5 103.8 325.5 103.5 331.5C103.2 337.5 103.2 343.5 102.4 349.5C101.6 355.6 100.1 361.6 98.7 367.6C97.2 373.6 95.3 379.6 93.7 385.7C92.2 391.7 90.4 397.7 89.4 403.7C88.3 409.7 87.5 415.7 87.3 421.8C87.1 427.8 87.7 433.8 88.3 439.8C88.9 445.8 90.0 451.9 91.0 457.9C92.1 463.9 93.4 469.9 94.6 475.9C95.8 481.9 97.2 488.0 98.3 494.0C99.4 500.0 100.4 506.0 101.1 512.0C101.8 518.1 102.1 527.0 102.2 530.1C102.4 533.1 102.1 530.2 101.9 530.3C101.7 530.5 101.4 530.8 101.0 531.1C100.5 531.4 100.0 531.8 99.4 532.2C98.8 532.6 98.0 533.1 97.2 533.7C96.4 534.2 95.5 534.8 94.4 535.5C93.4 536.1 92.3 536.8 91.1 537.6C89.9 538.3 88.6 539.0 87.2 539.8C85.8 540.6 84.3 541.4 82.7 542.2C81.1 543.1 79.5 543.9 77.7 544.8C76.0 545.6 74.2 546.5 72.3 547.4C70.4 548.2 68.4 549.1 66.4 549.9C64.4 550.8 62.2 551.6 60.1 552.5C57.9 553.3 55.7 554.1 53.4 554.9C51.1 555.7 48.8 556.4 46.4 557.2C44.0 557.9 41.6 558.6 39.1 559.2C36.6 559.9 34.1 560.5 31.6 561.0C29.0 561.6 26.5 562.1 23.9 562.5C21.3 563.0 18.6 563.3 16.0 563.7C13.4 564.0 10.7 564.2 8.0 564.4C5.4 564.5 2.7 564.6 0.0 564.6C-2.7 564.6 -5.4 564.5 -8.0 564.4C-10.7 564.2 -13.4 563.9 -16.0 563.5C-18.6 563.1 -21.3 562.7 -23.9 562.1C-26.5 561.5 -29.0 560.8 -31.6 559.9C-34.1 559.1 -36.6 558.1 -39.1 557.1C-41.6 556.0 -44.0 554.8 -46.4 553.4C-48.8 552.1 -51.1 550.6 -53.4 549.0C-55.7 547.3 -57.9 545.6 -60.1 543.6C-62.2 541.7 -64.4 539.6 -66.4 537.4C-68.4 535.1 -70.4 532.7 -72.3 530.1C-74.1 527.5 -75.9 524.7 -77.5 521.8C-79.1 518.9 -80.6 515.7 -81.8 512.4C-83.1 509.1 -84.1 505.6 -85.0 501.9C-85.8 498.2 -86.5 494.3 -86.9 490.2C-87.4 486.1 -87.6 481.8 -87.7 477.2C-87.8 472.7 -87.6 468.0 -87.5 463.0C-87.3 458.0 -87.0 452.8 -86.8 447.4C-86.6 442.0 -86.3 436.3 -86.4 430.4C-86.6 424.5 -86.8 418.3 -87.8 411.9C-88.7 405.5 -89.8 375.3 -92.0 392.0C-94.3 408.7 -100.1 495.0 -101.1 512.0C-102.1 529.0 -99.4 500.0 -98.3 494.0C-97.2 488.0 -95.8 481.9 -94.6 475.9C-93.4 469.9 -92.1 463.9 -91.0 457.9C-90.0 451.9 -88.9 445.8 -88.3 439.8C-87.7 433.8 -87.1 427.8 -87.3 421.8C-87.5 415.7 -88.3 409.7 -89.4 403.7C-90.4 397.7 -92.2 391.7 -93.7 385.7C-95.3 379.6 -97.2 373.6 -98.7 367.6C-100.1 361.6 -101.6 355.6 -102.4 349.5C-103.2 343.5 -103.2 337.5 -103.5 331.5C-103.8 325.5 -104.0 319.5 -104.3 313.4C-104.6 307.4 -105.2 301.4 -105.5 295.4C-105.7 289.4 -105.2 283.3 -106.0 277.3C-106.8 271.3 -108.3 265.3 -110.3 259.3C-112.3 253.3 -115.7 247.2 -118.0 241.2C-120.3 235.2 -123.9 229.2 -124.1 223.2C-124.4 217.1 -124.5 211.1 -119.8 205.1C-115.2 199.1 -102.7 193.1 -96.3 187.1C-89.9 181.0 -83.9 172.0 -81.4 169.0Z" fill="#5A90BE" stroke="#1B3144" stroke-width="3"/><path d="M-84.8 306.6C-84.6 309.4 -84.1 317.6 -83.9 323.0C-83.8 328.5 -83.9 334.0 -83.6 339.4C-83.3 344.9 -82.8 350.4 -82.0 355.8C-81.2 361.3 -80.0 366.8 -78.8 372.2C-77.7 377.7 -76.3 383.2 -75.2 388.6C-74.0 394.1 -72.8 399.6 -72.1 405.0C-71.3 410.5 -70.8 416.0 -70.6 421.4C-70.5 426.9 -70.9 432.4 -71.3 437.8C-71.7 443.3 -72.4 448.8 -73.1 454.2C-73.9 459.7 -74.8 465.2 -75.7 470.6C-76.6 476.1 -77.6 481.6 -78.4 487.0C-79.3 492.5 -80.2 498.0 -80.8 503.4C-81.5 508.9 -82.1 514.4 -82.4 519.8C-82.7 525.3 -82.6 533.5 -82.7 536.2" fill="none" stroke="#315A7D" stroke-width="2.2"/><path d="M84.8 306.6C84.6 309.4 84.1 317.6 83.9 323.0C83.8 328.5 83.9 334.0 83.6 339.4C83.3 344.9 82.8 350.4 82.0 355.8C81.2 361.3 80.0 366.8 78.8 372.2C77.7 377.7 76.3 383.2 75.2 388.6C74.0 394.1 72.8 399.6 72.1 405.0C71.3 410.5 70.8 416.0 70.6 421.4C70.5 426.9 70.9 432.4 71.3 437.8C71.7 443.3 72.4 448.8 73.1 454.2C73.9 459.7 74.8 465.2 75.7 470.6C76.6 476.1 77.6 481.6 78.4 487.0C79.3 492.5 80.2 498.0 80.8 503.4C81.5 508.9 82.1 514.4 82.4 519.8C82.7 525.3 82.6 533.5 82.7 536.2" fill="none" stroke="#315A7D" stroke-width="2.2"/><path d="M-103.4 336.6C-103.2 338.9 -103.0 345.6 -102.4 350.0C-101.8 354.5 -100.8 359.0 -99.7 363.4C-98.7 367.9 -97.4 372.3 -96.2 376.8C-95.0 381.3 -93.6 385.7 -92.5 390.2C-91.4 394.7 -90.2 399.1 -89.4 403.6C-88.5 408.1 -87.8 412.5 -87.5 417.0C-87.2 421.4 -87.3 425.9 -87.5 430.4C-87.7 434.8 -88.2 439.3 -88.8 443.8C-89.3 448.2 -90.1 452.7 -90.9 457.1C-91.7 461.6 -92.6 466.1 -93.5 470.5C-94.4 475.0 -95.4 479.5 -96.3 483.9C-97.2 488.4 -98.1 492.9 -98.9 497.3C-99.7 501.8 -100.4 506.2 -100.9 510.7C-101.5 515.2 -101.9 521.9 -102.1 524.1" fill="none" stroke="#315A7D" stroke-width="1.8" opacity="0.7"/><path d="M103.4 336.6C103.2 338.9 103.0 345.6 102.4 350.0C101.8 354.5 100.8 359.0 99.7 363.4C98.7 367.9 97.4 372.3 96.2 376.8C95.0 381.3 93.6 385.7 92.5 390.2C91.4 394.7 90.2 399.1 89.4 403.6C88.5 408.1 87.8 412.5 87.5 417.0C87.2 421.4 87.3 425.9 87.5 430.4C87.7 434.8 88.2 439.3 88.8 443.8C89.3 448.2 90.1 452.7 90.9 457.1C91.7 461.6 92.6 466.1 93.5 470.5C94.4 475.0 95.4 479.5 96.3 483.9C97.2 488.4 98.1 492.9 98.9 497.3C99.7 501.8 100.4 506.2 100.9 510.7C101.5 515.2 101.9 521.9 102.1 524.1" fill="none" stroke="#315A7D" stroke-width="1.8" opacity="0.7"/><path d="M-46.1 173.0C-48.4 174.7 -55.0 179.8 -59.9 183.2C-64.8 186.6 -70.3 190.0 -75.4 193.5C-80.6 196.9 -86.4 200.3 -90.6 203.7C-94.9 207.1 -98.5 210.5 -100.8 213.9C-103.1 217.3 -103.6 220.7 -104.4 224.1C-105.2 227.5 -105.4 231.0 -105.5 234.4C-105.6 237.8 -105.2 241.2 -104.9 244.6C-104.5 248.0 -103.9 251.4 -103.4 254.8C-102.9 258.2 -102.3 261.6 -102.0 265.0C-101.7 268.5 -101.6 271.9 -101.7 275.3C-101.8 278.7 -102.5 282.1 -102.8 285.5C-103.2 288.9 -103.4 292.3 -103.5 295.7C-103.7 299.1 -103.7 302.6 -103.8 306.0C-103.8 309.4 -103.7 312.8 -103.7 316.2C-103.6 319.6 -103.6 323.0 -103.5 326.4C-103.5 329.8 -103.4 334.9 -103.4 336.6" fill="none" stroke="#1B3144" stroke-width="2.4"/><path d="M46.1 173.0C48.4 174.7 55.0 179.8 59.9 183.2C64.8 186.6 70.3 190.0 75.4 193.5C80.6 196.9 86.4 200.3 90.6 203.7C94.9 207.1 98.5 210.5 100.8 213.9C103.1 217.3 103.6 220.7 104.4 224.1C105.2 227.5 105.4 231.0 105.5 234.4C105.6 237.8 105.2 241.2 104.9 244.6C104.5 248.0 103.9 251.4 103.4 254.8C102.9 258.2 102.3 261.6 102.0 265.0C101.7 268.5 101.6 271.9 101.7 275.3C101.8 278.7 102.5 282.1 102.8 285.5C103.2 288.9 103.4 292.3 103.5 295.7C103.7 299.1 103.7 302.6 103.8 306.0C103.8 309.4 103.7 312.8 103.7 316.2C103.6 319.6 103.6 323.0 103.5 326.4C103.5 329.8 103.4 334.9 103.4 336.6" fill="none" stroke="#1B3144" stroke-width="2.4"/><path d="M102.3 312.8C101.8 313.0 100.6 313.7 99.4 314.2C98.3 314.6 97.0 315.1 95.5 315.6C94.0 316.0 92.4 316.4 90.5 316.9C88.7 317.3 86.7 317.7 84.6 318.1C82.4 318.5 80.1 318.9 77.7 319.2C75.3 319.6 72.7 319.9 70.0 320.3C67.2 320.6 64.4 320.9 61.5 321.2C58.5 321.5 55.4 321.7 52.3 322.0C49.1 322.2 45.9 322.4 42.5 322.6C39.2 322.8 35.8 323.0 32.3 323.2C28.8 323.3 25.3 323.4 21.7 323.6C18.2 323.7 14.6 323.7 10.9 323.8C7.3 323.8 3.6 323.9 0.0 323.9C-3.6 323.9 -7.3 323.8 -10.9 323.8C-14.6 323.7 -18.2 323.7 -21.7 323.6C-25.3 323.4 -28.8 323.3 -32.3 323.2C-35.8 323.0 -39.2 322.8 -42.5 322.6C-45.9 322.4 -49.1 322.2 -52.3 322.0C-55.4 321.7 -58.5 321.5 -61.5 321.2C-64.4 320.9 -67.2 320.6 -70.0 320.3C-72.7 319.9 -75.3 319.6 -77.7 319.2C-80.1 318.9 -82.4 318.5 -84.6 318.1C-86.7 317.7 -88.7 317.3 -90.5 316.9C-92.4 316.4 -94.0 316.0 -95.5 315.6C-97.0 315.1 -98.3 314.6 -99.4 314.2C-100.6 313.7 -101.5 313.2 -102.3 312.8C-103.0 312.3 -103.6 311.8 -104.0 311.3C-104.4 310.8 -104.5 310.1 -104.5 309.9" fill="none" stroke="#315A7D" stroke-width="2.2"/><path d="M102.2 514.1C102.1 514.2 102.0 514.3 101.7 514.5C101.3 514.8 100.7 515.2 100.0 515.8C99.2 516.3 98.3 517.0 97.2 517.7C96.1 518.4 94.8 519.3 93.4 520.2C91.9 521.0 90.3 522.0 88.5 523.0C86.7 524.1 84.8 525.1 82.7 526.2C80.6 527.3 78.3 528.5 76.0 529.6C73.6 530.8 71.0 531.9 68.4 533.1C65.8 534.2 63.0 535.4 60.1 536.5C57.2 537.6 54.2 538.7 51.1 539.7C48.0 540.7 44.8 541.7 41.6 542.6C38.3 543.5 35.0 544.3 31.6 545.0C28.2 545.8 24.7 546.4 21.3 546.9C17.8 547.5 14.2 547.9 10.7 548.2C7.1 548.5 3.6 548.6 0.0 548.6C-3.6 548.6 -7.1 548.5 -10.7 548.1C-14.2 547.8 -17.8 547.3 -21.3 546.6C-24.7 545.9 -28.2 545.0 -31.6 543.9C-35.0 542.8 -38.3 541.5 -41.6 539.9C-44.8 538.4 -48.0 536.6 -51.1 534.6C-54.2 532.5 -57.2 530.2 -60.1 527.6C-63.0 525.0 -65.8 522.2 -68.4 519.0C-71.0 515.9 -73.6 512.5 -75.9 508.7C-78.1 504.9 -80.2 500.8 -81.8 496.4C-83.5 492.0 -84.8 487.3 -85.8 482.1C-86.7 477.0 -87.3 471.5 -87.6 465.7C-87.8 459.8 -87.7 453.6 -87.5 447.0C-87.3 440.3 -86.7 433.3 -86.6 425.9C-86.5 418.4 -86.1 410.6 -87.0 402.3C-87.9 393.9 -91.2 380.4 -92.0 376.0" fill="none" stroke="#315A7D" stroke-width="2"/><g class="arm">
      <path d="M147.5 211.0C147.2 228.7 146.1 277.7 145.9 317.0C145.7 356.3 146.4 416.5 146.3 447.0C146.2 477.5 151.0 491.2 145.5 500.0C140.0 508.8 119.7 508.8 113.5 500.0C107.3 491.2 110.9 477.5 108.3 447.0C105.7 416.5 101.4 356.3 97.9 317.0C94.4 277.7 89.2 228.7 87.5 211.0Z" fill="#5A90BE" stroke="#1B3144" stroke-width="2.6"/>
      <path d="M109.9 460.7L145.9 460.7L145.5 500.0L113.5 500.0Z" fill="#5A90BE" stroke="#1B3144" stroke-width="2.6"/>
      <path d="M109.9 460.7L145.9 460.7L145.5 500.0L113.5 500.0Z" fill="#FFFFFF" opacity="0.9"
            transform="translate(0,0)" clip-path="none" style="display:none"/>
      <g class="cuff-mark" fill="#FFFFFF" opacity="0.95">
        <rect x="116.5" y="475.4" width="26" height="7" rx="3"/>
      </g>
      <ellipse cx="129.5" cy="526.0" rx="13" ry="26" fill="#C6A088"/>
    </g><ellipse cx="0" cy="68.0" rx="45.0" ry="67.0" fill="#6A4830"/><path d="M-20.0 130.0L20.0 130.0L18.0 177.0L-18.0 177.0Z" fill="#C6A088"/><path d="M13.0 72.0C13.7 80.0 16.7 103.3 17.4 120.0C18.1 136.7 17.9 156.0 17.0 172.0C16.1 188.0 14.0 208.7 11.8 216.0C9.6 223.3 6.6 223.3 3.8 216.0C1.0 208.7 -2.3 188.0 -5.0 172.0C-7.7 156.0 -11.3 136.7 -12.6 120.0C-13.9 103.3 -12.9 80.0 -13.0 72.0Z" fill="#6A4830"/><path d="M-0.0 72.0C0.4 80.0 1.4 103.3 2.4 120.0C3.4 136.7 5.1 156.0 6.0 172.0C6.9 188.0 7.5 208.7 7.8 216.0" fill="none" stroke="#8A6242" stroke-width="3" opacity="0.6"/></g></g>
  <text x="210.00" y="1094.00" font-family="'Helvetica Neue', Helvetica, Arial, 'Liberation Sans', sans-serif" font-size="22" font-weight="700" fill="#061927" text-anchor="middle" letter-spacing="1.6" opacity="1">BACK</text>
</svg>
